<?xml version="1.0" encoding="UTF-8" standalone="no"?>
<svg
   xmlns:dc="http://purl.org/dc/elements/1.1/"
   xmlns:cc="http://creativecommons.org/ns#"
   xmlns:rdf="http://www.w3.org/1999/02/22-rdf-syntax-ns#"
   xmlns:svg="http://www.w3.org/2000/svg"
   xmlns="http://www.w3.org/2000/svg"
   xmlns:sodipodi="http://sodipodi.sourceforge.net/DTD/sodipodi-0.dtd"
   xmlns:inkscape="http://www.inkscape.org/namespaces/inkscape"
   width="210mm"
   height="297mm"
   viewBox="0 0 210 297"
   version="1.1"
   id="svg8"
   inkscape:version="1.0.2 (e86c870879, 2021-01-15)"
   sodipodi:docname="menu.svg">
  <defs
     id="defs2" />
  <sodipodi:namedview
     id="base"
     pagecolor="#ffffff"
     bordercolor="#666666"
     borderopacity="1.0"
     inkscape:pageopacity="0.0"
     inkscape:pageshadow="2"
     inkscape:zoom="0.35"
     inkscape:cx="400"
     inkscape:cy="517.14286"
     inkscape:document-units="mm"
     inkscape:current-layer="layer1"
     inkscape:document-rotation="0"
     showgrid="false"
     inkscape:window-width="1366"
     inkscape:window-height="736"
     inkscape:window-x="0"
     inkscape:window-y="0"
     inkscape:window-maximized="1" />
  <metadata
     id="metadata5">
    <rdf:RDF>
      <cc:Work
         rdf:about="">
        <dc:format>image/svg+xml</dc:format>
        <dc:type
           rdf:resource="http://purl.org/dc/dcmitype/StillImage" />
        <dc:title></dc:title>
      </cc:Work>
    </rdf:RDF>
  </metadata>
  <g
     inkscape:label="Layer 1"
     inkscape:groupmode="layer"
     id="layer1">
    <rect
       style="fill:#ffff00;stroke:#ffffff;stroke-width:0.264583"
       id="rect10"
       width="306.07504"
       height="333.88882"
       x="-30.368025"
       y="-13.421107" />
    <path
       style="fill:#ff9955;stroke:#000000;stroke-width:0.264583px;stroke-linecap:butt;stroke-linejoin:miter;stroke-opacity:1"
       d="m 68.130207,226.11244 c 11.589708,-0.3727 22.7911,-4.0612 34.366303,-4.40874 16.10038,-0.4834 33.3184,-2.73173 49.20778,0.45476 8.48651,1.7019 18.01497,2.65152 25.57835,7.12248 9.79165,5.78817 7.12536,20.60283 0.502,27.96434 -3.82377,4.24991 -12.39984,5.34411 -17.27469,6.72679 -2.85779,0.81057 -5.14281,2.10716 -8.17078,2.61336 -15.65701,2.61737 -32.18085,0.55589 -47.71064,-1.13392 -14.033698,-1.52705 -35.662446,0.81568 -46.092421,-11.32158 -5.682086,-6.61219 -4.643369,-16.08254 3.348633,-20.37824 2.110697,-1.1345 6.428433,-3.59372 8.826333,-3.59372 0.154943,0 0.898424,0.1078 0.980376,-0.0561 0.208,-0.416 0,-1.557 0,-2.0139 0,-1.20554 3.378875,-1.56092 1.960753,-3.92446"
       id="path12" />
    <path
       style="fill:#ff9955;stroke:#000000;stroke-width:0.264583px;stroke-linecap:butt;stroke-linejoin:miter;stroke-opacity:1"
       d="m 68.130207,226.11244 c 11.589708,-0.3727 22.7911,-4.0612 34.366303,-4.40874 16.10038,-0.4834 33.3184,-2.73173 49.20778,0.45476 8.48651,1.7019 18.01497,2.65152 25.57835,7.12248 9.79165,5.78817 7.12536,20.60283 0.502,27.96434 -3.82377,4.24991 -12.39984,5.34411 -17.27469,6.72679 -2.85779,0.81057 -5.14281,2.10716 -8.17078,2.61336 -15.65701,2.61737 -32.18085,0.55589 -47.71064,-1.13392 -14.033698,-1.52705 -35.662446,0.81568 -46.092421,-11.32158 -5.682086,-6.61219 -4.643369,-16.08254 3.348633,-20.37824 2.110697,-1.1345 6.428433,-3.59372 8.826333,-3.59372 0.154943,0 0.898424,0.1078 0.980376,-0.0561 0.208,-0.416 0,-1.557 0,-2.0139 0,-1.20554 3.378875,-1.56092 1.960753,-3.92446"
       id="path14" />
    <path
       style="fill:#ff9955;stroke:#000000;stroke-width:0.264583px;stroke-linecap:butt;stroke-linejoin:miter;stroke-opacity:1"
       d="m 67.741493,160.42849 c 11.58971,-0.3727 22.7911,-4.0612 34.366297,-4.40874 16.10038,-0.4834 33.3184,-2.73173 49.20778,0.45476 8.48651,1.7019 18.01497,2.65152 25.57835,7.12248 9.79165,5.78817 7.12536,20.60283 0.502,27.96434 -3.82377,4.24991 -12.39984,5.34411 -17.27469,6.72679 -2.85779,0.81057 -5.14281,2.10716 -8.17078,2.61336 -15.65701,2.61737 -32.18085,0.55589 -47.71064,-1.13392 -14.033697,-1.52705 -35.662437,0.81568 -46.092417,-11.32158 -5.68208,-6.61219 -4.64337,-16.08254 3.34863,-20.37824 2.1107,-1.1345 6.42844,-3.59372 8.82634,-3.59372 0.15494,0 0.89842,0.1078 0.98037,-0.0561 0.208,-0.416 0,-1.557 0,-2.0139 0,-1.20554 3.37888,-1.56092 1.96076,-3.92446"
       id="path14-3" />
    <path
       style="fill:#ff9955;stroke:#000000;stroke-width:0.264583px;stroke-linecap:butt;stroke-linejoin:miter;stroke-opacity:1"
       d="m 68.187385,102.8757 c 11.589708,-0.3727 22.7911,-4.061197 34.366305,-4.408737 16.10038,-0.4834 33.3184,-2.73173 49.20778,0.45476 8.48651,1.701897 18.01497,2.651517 25.57835,7.122477 9.79165,5.78817 7.12536,20.60283 0.502,27.96434 -3.82377,4.24991 -12.39984,5.34411 -17.27469,6.72679 -2.85779,0.81057 -5.14281,2.10716 -8.17078,2.61336 -15.65701,2.61737 -32.18085,0.55589 -47.71064,-1.13392 -14.0337,-1.52705 -35.662448,0.81568 -46.092423,-11.32158 -5.682086,-6.61219 -4.643369,-16.08254 3.348633,-20.37824 2.110697,-1.1345 6.428433,-3.59372 8.826333,-3.59372 0.154943,0 0.898424,0.1078 0.980376,-0.0561 0.208,-0.416 0,-1.557 0,-2.0139 0,-1.20554 3.378875,-1.56092 1.960753,-3.92446"
       id="path14-6" />
  </g>
</svg>
